<svg width="18" height="18" viewBox="0 0 18 18" fill="none" xmlns="http://www.w3.org/2000/svg">
<path d="M1.07496 9.10068C0.46521 9.42018 0.490523 9.88818 1.13009 10.1424L3.02234 10.8911C3.6619 11.1437 4.62884 11.0059 5.17165 10.5817L13.3909 4.10006C13.9315 3.67424 13.9894 3.73724 13.5197 4.24012L7.02171 11.1949C6.5509 11.6966 6.68984 12.3109 7.33109 12.5589L7.55271 12.6456C8.19396 12.8931 9.24021 13.3104 9.87696 13.5692L11.9762 14.4247C12.6135 14.6835 13.135 14.8984 13.1361 14.9023C13.1366 14.9062 13.1395 14.9181 13.1428 14.9192C13.1462 14.9203 13.2964 14.3781 13.477 13.7149L16.6765 1.95412C16.857 1.29037 16.5066 1.00856 15.8974 1.32806L1.07496 9.10068Z" fill="#B1AFB3"/>
<path d="M6.26971 16.7985C6.23203 16.9104 7.56403 14.8697 7.56403 14.8697C7.94034 14.2948 7.72715 13.6091 7.0904 13.3492L5.63803 12.7541C5.00128 12.4937 4.6964 12.7991 4.96021 13.4359C4.96021 13.4364 6.30796 16.6837 6.26971 16.7985Z" fill="#B1AFB3"/>
</svg>
